<mxfile host="app.diagrams.net" modified="2022-04-06T18:08:23.149Z" agent="5.0 (Windows NT 10.0; Win64; x64) AppleWebKit/537.36 (KHTML, like Gecko) Chrome/99.0.4844.84 Safari/537.36" etag="ge0V-ipSmXhSyiUiy-21" version="17.2.4" type="github">
  <diagram id="dQAt1XXmWPKmwT4TICCl" name="Page-1">
    <mxGraphModel dx="925" dy="536" grid="1" gridSize="10" guides="1" tooltips="1" connect="1" arrows="1" fold="1" page="1" pageScale="1" pageWidth="850" pageHeight="1100" math="0" shadow="0">
      <root>
        <mxCell id="0" />
        <mxCell id="1" parent="0" />
        <mxCell id="HHKyrftKG0PZNcQrj0EW-3" style="edgeStyle=orthogonalEdgeStyle;rounded=0;orthogonalLoop=1;jettySize=auto;html=1;entryX=0.5;entryY=0;entryDx=0;entryDy=0;" edge="1" parent="1" source="HHKyrftKG0PZNcQrj0EW-1" target="HHKyrftKG0PZNcQrj0EW-2">
          <mxGeometry relative="1" as="geometry" />
        </mxCell>
        <mxCell id="HHKyrftKG0PZNcQrj0EW-1" value="Early 2000" style="rounded=1;whiteSpace=wrap;html=1;" vertex="1" parent="1">
          <mxGeometry x="80" y="200" width="120" height="60" as="geometry" />
        </mxCell>
        <mxCell id="HHKyrftKG0PZNcQrj0EW-2" value="ETL and Data Quality products" style="text;html=1;strokeColor=none;fillColor=none;align=center;verticalAlign=middle;whiteSpace=wrap;rounded=0;" vertex="1" parent="1">
          <mxGeometry x="60" y="330" width="160" height="80" as="geometry" />
        </mxCell>
      </root>
    </mxGraphModel>
  </diagram>
</mxfile>
